<?xml version="1.0" encoding="utf-8"?>
<!-- Svg Vector Icons : http://www.onlinewebfonts.com/icon -->
<!DOCTYPE svg PUBLIC "-//W3C//DTD SVG 1.1//EN" "http://www.w3.org/Graphics/SVG/1.1/DTD/svg11.dtd">
<svg viewBox="0 0 1000 1000">
<metadata> Svg Vector Icons : http://www.onlinewebfonts.com/icon </metadata>
<g>
<g transform="translate(0.000000,511.000000) scale(0.100000,-0.100000)">
<path d="M6271,4987.8c-1482.5-181.5-3126.1-1096.6-4296.7-2395c-536.8-598.1-907.4-1137.5-1237.1-1807.1c-340-692.7-524-1285.7-600.7-1940.1c-48.5-421.8-48.5-651.8,0-1019.9c178.9-1375.2,1068.4-2318.4,2415.5-2566.3c365.5-66.4,1014.8-58.8,1444.2,15.4c2758,483.1,5360.1,3087.7,5843.2,5845.7c74.1,426.9,81.8,1076.1,15.4,1441.6C9622,3824.8,8793.8,4673.4,7531.1,4941.8C7250,5000.6,6582.8,5026.1,6271,4987.8z M7408.4,4555.8c664.6-140.6,1163-429.4,1523.4-881.8c628.8-784.7,738.7-1937.5,311.8-3253.9c-324.6-1007.1-902.3-1914.5-1768.8-2781C6383.5-3452.3,5177-4111.8,3855.5-4341.8c-311.8-56.2-1035.2-43.5-1329.2,20.4C530.1-3884.3-75.7-1744.9,1120.5,645c1032.7,2065.3,3167,3680.7,5204.2,3936.4C6554.7,4609.5,7227,4594.2,7408.4,4555.8z"/>
<path d="M8065.4,3474.6c-687.6-355.3-1574.6-912.5-2088.3-1311.3c-552.1-429.4-917.6-846.1-1145.1-1301C4791,778,4678.6,501.9,4584,248.9c-207-554.7-316.9-774.5-534.2-1060.8c-209.6-278.6-902.3-956-1850.6-1812.3c-649.3-587.9-748.9-685-741.3-741.3c12.8-109.9,94.6-92,447.3,81.8c976.4,490.8,2136.9,1278,2678.8,1819.9c388.5,388.5,613.5,771.9,876.7,1495.3c171.3,470.3,258.2,654.4,419.2,887c166.1,245.4,897.2,979,1592.4,1605.2c835.8,748.9,1086.3,986.6,1086.3,1032.6c0,51.1-48.6,104.8-94.6,104.8C8443.6,3661.2,8264.7,3576.9,8065.4,3474.6z"/>
</g>
</g>
</svg>