<?xml version="1.0" encoding="UTF-8" standalone="no"?>
<!-- Generator: Adobe Illustrator 19.0.0, SVG Export Plug-In . SVG Version: 6.00 Build 0)  -->

<svg
   version="1.1"
   id="Layer_1"
   x="0px"
   y="0px"
   viewBox="0 0 511.99863 397.42801"
   xml:space="preserve"
   sodipodi:docname="cow-animals-svgrepo-com.svg"
   width="511.99863"
   height="397.42801"
   inkscape:version="1.1.2 (08b2f3d93c, 2022-04-05)"
   xmlns:inkscape="http://www.inkscape.org/namespaces/inkscape"
   xmlns:sodipodi="http://sodipodi.sourceforge.net/DTD/sodipodi-0.dtd"
   xmlns="http://www.w3.org/2000/svg"
   xmlns:svg="http://www.w3.org/2000/svg"><defs
   id="defs58" /><sodipodi:namedview
   id="namedview56"
   pagecolor="#505050"
   bordercolor="#eeeeee"
   borderopacity="1"
   inkscape:pageshadow="0"
   inkscape:pageopacity="0"
   inkscape:pagecheckerboard="0"
   showgrid="false"
   inkscape:zoom="1.7050815"
   inkscape:cx="255.9995"
   inkscape:cy="198.52424"
   inkscape:window-width="2488"
   inkscape:window-height="1376"
   inkscape:window-x="2632"
   inkscape:window-y="27"
   inkscape:window-maximized="1"
   inkscape:current-layer="Layer_1" />
<g
   id="g6"
   transform="translate(-2.5e-4,-57.286)">
	<g
   id="g4">
		<path
   d="m 397.623,217.971 c -0.351,-0.793 -4.026,-7.088 -8.714,-11.013 -1.436,-1.205 -5.14,-3.243 -5.14,-3.243 -4.066,-2.028 -8.473,-3.062 -13.091,-3.062 H 322.49 c -5.542,0 -10.039,4.498 -10.039,10.039 0,5.542 4.498,10.039 10.039,10.039 h 48.188 c 3.704,0 6.335,2.058 7.76,4.016 1.175,1.606 1.777,4.106 1.777,5.532 0,5.542 4.497,10.039 10.039,10.039 5.542,0 10.039,-4.497 10.039,-10.039 0,-4.307 -0.904,-8.463 -2.67,-12.308 z"
   id="path2" />
	</g>
</g>
<g
   id="SVGCleanerId_0"
   transform="translate(-2.5e-4,-57.286)">
	<g
   id="g10">
		<path
   d="m 397.623,217.971 c -0.351,-0.793 -4.026,-7.088 -8.714,-11.013 -1.436,-1.205 -5.14,-3.243 -5.14,-3.243 -4.066,-2.028 -8.473,-3.062 -13.091,-3.062 H 322.49 c -5.542,0 -10.039,4.498 -10.039,10.039 0,5.542 4.498,10.039 10.039,10.039 h 48.188 c 3.704,0 6.335,2.058 7.76,4.016 1.175,1.606 1.777,4.106 1.777,5.532 0,5.542 4.497,10.039 10.039,10.039 5.542,0 10.039,-4.497 10.039,-10.039 0,-4.307 -0.905,-8.463 -2.67,-12.308 z"
   id="path8" />
	</g>
</g>
<g
   id="g17"
   transform="translate(-2.5e-4,-57.286)">
	<g
   id="g15">
		<path
   d="M 511.567,289.912 496.94,241.553 v -8.172 c 0,-44.062 -35.85,-79.911 -79.901,-79.911 H 233.262 c 8.142,-4.508 15.089,-11.174 19.888,-19.476 1.797,-3.112 1.797,-6.947 -0.01,-10.059 -9.286,-16.043 -26.553,-26.001 -45.066,-26.001 -11.455,0 -22.347,3.704 -31.262,10.421 -0.512,-0.472 -1.034,-0.924 -1.576,-1.355 11.013,-9.698 17.97,-23.893 17.97,-39.675 0,-5.552 -4.497,-10.039 -10.039,-10.039 -5.542,0 -10.039,4.487 -10.039,10.039 0,18.081 -14.717,32.798 -32.798,32.798 h -26.172 c -18.08,0 -32.798,-14.717 -32.798,-32.798 0,-5.552 -4.487,-10.039 -10.039,-10.039 -5.542,0 -10.039,4.487 -10.039,10.039 0,15.792 6.957,29.987 17.97,39.675 -0.542,0.432 -1.064,0.873 -1.576,1.345 -8.915,-6.706 -19.807,-10.411 -31.252,-10.411 -18.522,0 -35.8,9.969 -45.076,26.001 -1.797,3.112 -1.797,6.937 0,10.049 9.276,16.053 26.543,26.021 45.076,26.021 8.433,0 16.635,-2.048 23.963,-5.853 l 6.586,47.766 c -7.901,4.909 -13.171,13.663 -13.171,23.622 v 8.674 c 0,15.32 12.459,27.778 27.778,27.778 h 5.17 v 7.6 c 0,24.385 11.414,47.013 30.77,61.49 l 9.377,114.416 c 0.422,5.21 4.779,9.216 9.999,9.216 h 71.017 c 5.23,0 9.577,-4.006 10.009,-9.216 l 8.112,-99.086 h 31.031 c 0.944,1.777 1.968,3.504 3.042,5.18 v 26.905 c 0,5.552 4.497,10.039 10.039,10.039 5.552,0 10.039,-4.487 10.039,-10.039 v -6.305 c 4.658,3.162 9.678,5.783 14.978,7.78 v 16.424 c 0,5.542 4.487,10.039 10.039,10.039 5.542,0 10.039,-4.498 10.039,-10.039 V 384.41 c 1.797,0.13 12.218,-0.05 15.551,-0.522 l -0.873,60.646 c -0.03,2.69 1.004,5.281 2.891,7.188 1.887,1.917 4.467,2.992 7.148,2.992 h 72.924 c 4.929,0 9.126,-3.574 9.909,-8.443 l 14.557,-90.262 c 0.09,-0.532 0.13,-1.064 0.13,-1.596 V 230.279 c 0,-11.143 -2.339,-21.905 -6.957,-31.975 -0.994,-2.179 -5.933,-10.672 -7.278,-12.559 -3.102,-4.337 -6.636,-8.322 -10.531,-11.916 30.338,2.861 54.151,28.471 54.151,59.552 v 8.172 l -14.627,48.359 c -0.924,3.042 -0.351,6.335 1.546,8.885 1.897,2.55 4.879,4.056 8.061,4.056 h 30.117 c 3.172,0 6.164,-1.506 8.061,-4.056 1.896,-2.551 2.468,-5.843 1.546,-8.885 z M 67.556,131.916 c -5.793,5.13 -13.302,8.011 -21.132,8.011 -9.296,0 -18.081,-4.086 -24.094,-10.963 6.013,-6.867 14.798,-10.953 24.094,-10.953 8.061,0 15.681,2.992 21.534,8.342 -0.302,1.838 -0.442,3.696 -0.402,5.563 z m 140.517,-13.904 c 9.286,0 18.07,4.086 24.084,10.953 -6.013,6.877 -14.788,10.963 -24.084,10.963 -7.831,0 -15.34,-2.881 -21.142,-8.001 0.04,-1.877 -0.1,-3.745 -0.402,-5.572 5.853,-5.352 13.482,-8.343 21.544,-8.343 z m -117.699,6.023 c 2.158,-2.47 5.15,-3.835 8.433,-3.835 h 56.872 c 3.283,0 6.274,1.365 8.433,3.835 2.148,2.47 3.092,5.622 2.64,8.864 l -1.877,13.643 c -1.787,-2.229 -4.508,-3.664 -7.58,-3.664 -5.341,0 -9.678,4.327 -9.678,9.668 0,5.341 4.337,9.668 9.678,9.668 2.118,0 4.076,-0.693 5.672,-1.847 v 0.01 l -5.16,37.386 H 96.678 l -5.16,-37.396 v -0.01 c 1.596,1.165 3.554,1.857 5.682,1.857 5.341,0 9.668,-4.327 9.668,-9.668 0,-5.341 -4.327,-9.668 -9.668,-9.668 -3.072,0 -5.803,1.436 -7.58,3.664 L 87.734,132.9 c -0.452,-3.243 0.491,-6.395 2.64,-8.865 z m 1.206,117.88 c -4.247,0 -7.7,-3.453 -7.7,-7.7 v -8.674 c 0,-4.247 3.453,-7.7 7.7,-7.7 h 71.338 c 4.237,0 7.69,3.453 7.69,7.7 v 8.674 c 0,4.247 -3.453,7.7 -7.69,7.7 z m 64.57,192.721 -7.559,-92.4 c 5.23,1.797 10.651,3.032 16.183,3.664 l 7.268,88.736 z m 191.558,-72.965 c -5.431,1.897 -11.164,2.861 -17.036,2.861 -15.49,0 -29.766,-6.796 -39.464,-18.121 H 345.7 c 3.704,3.895 7.82,7.379 12.248,10.38 -3.223,1.989 -6.656,3.636 -10.24,4.88 z m 28.4,72.965 h -15.962 l 0.813,-56.701 c 5.793,-2.69 11.224,-6.144 16.123,-10.27 z M 427.399,230.279 V 353.61 l -13.071,81.026 h -18.131 l 1.094,-76.127 c 0.07,-4.859 -3.353,-9.065 -8.132,-9.999 -3.192,-0.612 -6.415,-1.566 -9.577,-2.821 -8.363,-3.333 -15.862,-8.774 -21.695,-15.751 -1.907,-2.289 -4.728,-3.604 -7.7,-3.604 h -123.4 c -5.23,0 -9.577,4.006 -10.009,9.216 l -8.112,99.086 H 192.202 L 184.08,335.55 c -0.432,-5.21 -4.779,-9.216 -10.009,-9.216 h -0.06 c -0.151,-0.01 -0.311,-0.01 -0.462,-0.01 -11.033,0 -21.725,-3.172 -30.921,-9.166 -16.153,-10.521 -25.801,-28.3 -25.801,-47.565 v -7.6 h 46.09 c 15.31,0 27.768,-12.459 27.768,-27.778 v -8.674 c 0,-9.959 -5.271,-18.713 -13.171,-23.622 l 3.965,-28.812 c 0.924,0.291 189.198,0.442 189.198,0.442 10.812,0 21.263,3.945 25.198,5.913 0.08,0.04 11.214,4.929 21.012,17.93 7.209,9.566 10.512,24.645 10.512,32.887 z m 54.733,54.834 4.769,-15.761 4.769,15.761 z"
   id="path13" />
	</g>
</g>
<g
   id="g23"
   transform="translate(-2.5e-4,-57.286)">
	<g
   id="g21">
		<path
   d="m 397.623,217.971 c -0.351,-0.793 -4.026,-7.088 -8.714,-11.013 -1.436,-1.205 -5.14,-3.243 -5.14,-3.243 -4.066,-2.028 -8.473,-3.062 -13.091,-3.062 H 322.49 c -5.542,0 -10.039,4.498 -10.039,10.039 0,5.542 4.498,10.039 10.039,10.039 h 48.188 c 3.704,0 6.335,2.058 7.76,4.016 1.175,1.606 1.777,4.106 1.777,5.532 0,5.542 4.497,10.039 10.039,10.039 5.542,0 10.039,-4.497 10.039,-10.039 0,-4.307 -0.905,-8.463 -2.67,-12.308 z"
   id="path19" />
	</g>
</g>
<g
   id="g25"
   transform="translate(-2.5e-4,-57.286)">
</g>
<g
   id="g27"
   transform="translate(-2.5e-4,-57.286)">
</g>
<g
   id="g29"
   transform="translate(-2.5e-4,-57.286)">
</g>
<g
   id="g31"
   transform="translate(-2.5e-4,-57.286)">
</g>
<g
   id="g33"
   transform="translate(-2.5e-4,-57.286)">
</g>
<g
   id="g35"
   transform="translate(-2.5e-4,-57.286)">
</g>
<g
   id="g37"
   transform="translate(-2.5e-4,-57.286)">
</g>
<g
   id="g39"
   transform="translate(-2.5e-4,-57.286)">
</g>
<g
   id="g41"
   transform="translate(-2.5e-4,-57.286)">
</g>
<g
   id="g43"
   transform="translate(-2.5e-4,-57.286)">
</g>
<g
   id="g45"
   transform="translate(-2.5e-4,-57.286)">
</g>
<g
   id="g47"
   transform="translate(-2.5e-4,-57.286)">
</g>
<g
   id="g49"
   transform="translate(-2.5e-4,-57.286)">
</g>
<g
   id="g51"
   transform="translate(-2.5e-4,-57.286)">
</g>
<g
   id="g53"
   transform="translate(-2.5e-4,-57.286)">
</g>
</svg>
