<?xml version="1.0" encoding="utf-8"?>
<!-- Generator: Adobe Illustrator 15.0.0, SVG Export Plug-In . SVG Version: 6.00 Build 0)  -->
<!DOCTYPE svg PUBLIC "-//W3C//DTD SVG 1.1//EN" "http://www.w3.org/Graphics/SVG/1.1/DTD/svg11.dtd">
<svg version="1.1" id="Layer_1" xmlns="http://www.w3.org/2000/svg" xmlns:xlink="http://www.w3.org/1999/xlink" x="0px" y="0px"
	 width="141.73px" height="141.73px" viewBox="0 0 141.73 141.73" enable-background="new 0 0 141.73 141.73" xml:space="preserve">
<path fill="#FFFFFF" d="M141.73,141.731H0V0h141.73V141.731z M1.363,140.369h139.004V1.363H1.363V140.369z"/>
<g>
	<g>
		<path fill="#FFFFFF" d="M113.205,20.475v22.361h9.253V20.475h7.979v-6.823h-25.259v6.823H113.205z M82.802,13.652h-9.253v18.412
			c0,8.155,6.278,11.461,13.832,11.461c7.555,0,13.832-3.306,13.832-11.461V13.652h-9.252v17.639c0,3.306-1.983,4.766-4.58,4.766
			s-4.579-1.459-4.579-4.766V13.652z M47.771,42.836h11.423L69.44,13.652H59.056l-5.477,20.559h-0.191l-5.475-20.559H37.526
			L47.771,42.836z M9.624,28.244c0,9.314,7.225,15.065,16.666,15.065c3.825,0,7.035-0.902,8.971-1.803v-7.339
			c-1.841,0.901-3.968,1.674-7.318,1.674c-3.352,0-8.215-2.318-8.215-7.597s4.438-7.769,8.732-7.769c2.929,0,4.96,0.602,6.754,1.417
			v-7.252c-1.889-0.773-4.25-1.375-8.026-1.375C17.696,13.265,9.624,18.93,9.624,28.244"/>
	</g>
	<polygon fill="#FFFFFF" points="15.61,6.191 21.653,12.366 30.737,12.366 36.78,6.191 29.282,6.191 26.284,9.159 26.108,9.159 
		23.107,6.191 	"/>
	<g>
		<path fill="#FFFFFF" d="M118.118,131.285c3.658,0,6.726-0.904,8.578-1.805v-7.354c-1.762,0.902-3.793,1.678-6.998,1.678
			c-3.206,0-7.856-2.324-7.856-7.613c0-5.287,4.245-7.781,8.353-7.781c2.8,0,4.74,0.602,6.456,1.42v-7.268
			c-1.807-0.775-4.064-1.377-7.676-1.377c-9.075,0-16.795,5.676-16.795,15.006C102.18,125.525,109.088,131.285,118.118,131.285
			 M81.816,115.074v-7.266h3.567c2.394,0,3.793,1.762,3.793,3.609c0,1.852-1.399,3.656-3.793,3.656H81.816z M72.968,130.812h8.849
			v-10.275h2.259l5.326,10.275h9.979l-5.642-9.031c-0.588-0.945-1.312-1.805-1.717-2.062l0.043-0.172
			c2.71-1.16,6.549-3.355,6.549-8.342c0-5.246-4.381-9.631-11.559-9.631H72.968V130.812z M56.895,130.812h8.851v-29.238h-8.851
			V130.812z M40.823,130.812h8.85v-29.238h-8.85V130.812z M27.368,131.285c3.659,0,6.728-0.904,8.578-1.805v-7.354
			c-1.76,0.902-3.794,1.678-6.996,1.678c-3.207,0-7.857-2.324-7.857-7.613c0-5.287,4.244-7.781,8.354-7.781
			c2.798,0,4.74,0.602,6.456,1.42v-7.268c-1.807-0.775-4.065-1.377-7.677-1.377c-9.074,0-16.795,5.676-16.795,15.006
			C11.431,125.525,18.339,131.285,27.368,131.285"/>
	</g>
</g>
</svg>
