<?xml version="1.0" encoding="utf-8"?>
<!-- Svg Vector Icons : http://www.onlinewebfonts.com/icon -->
<!DOCTYPE svg PUBLIC "-//W3C//DTD SVG 1.1//EN" "http://www.w3.org/Graphics/SVG/1.1/DTD/svg11.dtd">
<svg viewBox="0 0 1000 1000">
<metadata> Svg Vector Icons : http://www.onlinewebfonts.com/icon </metadata>
<g>
<path d="M982.5,363.3L842.7,139.7l1.1-6.8l-5.4,0l-8.7-14l17.4-107.2L186.6,11l-5.2,108.5L13.2,408.7l-3.2,547L767.3,989L990,847.6L982.5,363.3z M828.4,224.2l83.1,133l-112.7,41.8L828.4,224.2z M731.3,930.5L67.3,901.2l2.6-448.1l664.4,17.4L731.3,930.5z M738.6,413.7L86.1,396.5l121.2-208.4l569.1,1.5L738.6,413.7z M770.1,130.9l1.1,1.8l-533.4-1.4l3.1-63.3l539.3,0.6L770.1,130.9z M788.4,908.2l2.6-445.6l135.4-50.2l6.2,404.2L788.4,908.2z M355,695.2c0.6-10.3,1.1-19.9,1.5-28.9c2.1,7.3,4.3,14.7,6.7,22.3l31.9,103.5h38.7l34.6-105.3c2.8-8.6,5.5-16.8,7.9-24.7c0.4,9.2,0.9,18.3,1.3,27l5.5,105h51L519.9,557h-57.1l-33.8,102.3c-4.5,14.1-8.5,27.6-12.1,40.7c-3.3-12.5-7.1-25.9-11.4-40.4L372.7,557h-56.8l-16.1,237.1h49.9L355,695.2z"/>
</g>
</svg>