<?xml version="1.0" encoding="UTF-8" standalone="no"?>
<svg
   version="1.1"
   width="404.59799"
   height="150"
   id="svg3067"
   sodipodi:docname="Pilsner_Urquell_logo_bile.svg"
   inkscape:version="1.1.2 (08b2f3d93c, 2022-04-05)"
   xmlns:inkscape="http://www.inkscape.org/namespaces/inkscape"
   xmlns:sodipodi="http://sodipodi.sourceforge.net/DTD/sodipodi-0.dtd"
   xmlns="http://www.w3.org/2000/svg"
   xmlns:svg="http://www.w3.org/2000/svg">
  <sodipodi:namedview
     id="namedview101"
     pagecolor="#505050"
     bordercolor="#eeeeee"
     borderopacity="1"
     inkscape:pageshadow="0"
     inkscape:pageopacity="0"
     inkscape:pagecheckerboard="0"
     showgrid="false"
     inkscape:zoom="1.5042293"
     inkscape:cx="337.38207"
     inkscape:cy="89.414559"
     inkscape:window-width="2488"
     inkscape:window-height="1376"
     inkscape:window-x="2632"
     inkscape:window-y="27"
     inkscape:window-maximized="1"
     inkscape:current-layer="svg3067" />
  <defs
     id="defs3069" />
  <path
     d="m 207.72477,0 c -3.28061,0.01580463 -12.12314,5.0413324 -12.07699,12.113041 0.0605,9.549114 11.01278,12.215426 11.06757,21.378076 l 0.1442,28.480067 c 0.006,1.123341 0.085,2.164486 0.18026,3.136413 -0.71957,6.192071 -3.5993,11.093388 -6.88569,12.401447 2.54806,0.811574 7.61247,-0.821957 9.91395,-3.677174 1.54585,1.847239 3.4825,2.642951 5.55181,2.631703 4.93463,-0.03772 10.3408,-3.570463 12.36541,-9.51739 0.036,-0.109594 0.0836,-0.210536 0.10809,-0.324456 l 0.036,7.642752 13.55508,-0.973369 c -2.47308,-3.225818 -3.65698,-7.159672 -3.67717,-10.490759 l -0.25236,-42.14329 c -0.0231,-3.349833 1.10316,-7.127947 3.53297,-10.9594179 l -17.124,1.3338769 c 2.47308,3.273405 3.62382,6.784744 3.64112,10.130251 l 0.21631,37.384596 c -2.25678,4.990861 -5.58498,7.120737 -7.78695,7.138041 -1.94387,0.02884 -3.36859,-1.473753 -3.38878,-5.227354 L 216.66535,31.183872 C 216.59325,19.529395 205.14355,16.074294 205.09308,7.4985494 205.07138,4.320318 206.27842,1.803978 207.72477,0 Z m 148.96165,7.6427522 c 2.05201,2.8811728 3.04558,6.2295638 3.06432,9.0126788 l 0.28841,45.820464 c 0.0159,2.785999 -0.93876,5.801281 -2.95617,8.796375 l 14.27609,0.288406 c -2.05778,-2.940297 -3.00807,-5.965674 -3.02826,-8.760325 L 367.9703,7.8590566 Z M 35.546449,7.7508467 C 20.741989,7.8445207 10.523759,18.414649 6.0208889,22.495591 c 2.39002,0.95318 5.0905201,2.94318 5.1192101,7.210143 0.0276,4.251101 -7.9036201,22.315394 -7.8590701,29.417386 0.0332,5.475383 3.34205,8.11718 7.4985601,7.750905 3.60565,-0.331667 6.72851,-3.072964 6.70544,-7.101992 -0.0237,-3.854543 -3.93688,-5.910876 -6.8857,-4.794745 -0.093,-15.180179 11.63877,-28.233423 23.10853,-28.299757 11.00108,-0.07637 17.50205,9.869245 17.59276,24.08188 0,0.07787 -0.004,0.115363 0,0.180254 -4.41968,1.469427 -9.13152,3.517107 -13.80744,5.984419 l -0.036,-8.183513 c -0.0128,-2.530761 0.9092,-8.319064 2.73986,-10.634962 l -19.79192,7.606702 c 3.66147,1.767927 5.3929,4.85531 5.40761,7.354346 l 0.036,10.959419 C 11.612599,73.937139 -0.07463113,87.164868 3.5887291e-4,99.499982 0.06275887,109.8161 5.4395489,114.54034 13.194929,114.49708 c 4.29292,-0.0377 8.68088,-1.15247 12.97826,-3.10037 l 0.1442,23.75743 c 0.0332,5.29946 -4.32608,9.63116 -8.65217,10.41866 1.49611,-1.15088 2.58225,-3.44688 2.5596,-6.45308 -0.0208,-3.91828 -2.46947,-7.3718 -6.05652,-7.35435 -3.59945,0.0272 -7.0265801,3.18099 -6.9938501,8.47192 0.0467,7.63714 6.8203801,11.92717 13.8795401,8.65217 l 22.3154,-10.0942 c -3.67371,-1.5287 -5.3743,-4.96201 -5.4076,-8.90452 l -0.18026,-25.99257 c 13.65718,-11.547628 24.5693,-31.029574 26.06469,-50.615209 0.74553,-0.100942 1.46943,-0.164391 2.16304,-0.216304 -0.40809,0.973369 -0.659,2.054891 -0.64891,3.136412 0.0231,4.22947 2.63891,5.96279 5.0471,5.768115 2.92299,-0.222072 5.32685,-3.029702 5.29946,-7.101991 -0.0275,-4.053543 -2.15728,-6.852521 -11.68043,-6.489129 C 63.850549,22.618221 50.337439,7.6456363 35.546389,7.7509044 Z M 373.34186,8.0032594 c 2.05778,2.9143406 3.01529,6.2540786 3.02827,9.0487306 l 0.28841,45.820462 c 0.0231,2.784558 -0.89839,5.822912 -2.92012,8.796375 l 14.27609,0.504711 c -2.06642,-2.969138 -3.00807,-5.998839 -3.02826,-8.796375 L 384.62575,8.435868 Z M 344.21287,28.768473 c -7.98308,0.05053 -14.4275,9.433752 -14.34819,22.423547 0.0938,14.573141 5.65996,20.755119 13.87953,20.693112 6.46174,-0.03899 10.57007,-4.02326 10.70707,-9.228984 0.10532,-3.530086 -1.93377,-6.13439 -4.6866,-6.453079 1.22717,2.099594 0.73976,9.442404 -4.79474,9.481339 -4.07517,0.02884 -6.34927,-4.882709 -6.45309,-12.870106 7.78119,2.803304 16.04546,-2.621609 16.29493,-11.53623 0.14565,-5.302339 -2.84656,-12.555744 -10.59891,-12.509599 z m -16.07862,0.829167 -14.1319,0.0721 c 2.05633,2.862428 2.98212,5.828682 2.99221,8.580072 l 0.1442,20.476808 c -3.37578,6.007492 -7.74514,5.090361 -7.78696,-0.865217 L 309.24372,38.61032 c -0.0217,-2.760043 -0.597,-5.81426 -1.83859,-8.832426 h -9.95001 c 2.58411,2.895593 3.55316,5.858963 3.56902,8.616122 l 0.1442,20.729163 c 0.10383,16.290598 11.76985,14.698598 16.00653,6.741484 l 0.036,4.830796 11.17573,0.144203 c -2.04192,-2.832145 -3.01384,-6.153137 -3.02826,-8.904528 l -0.14421,-23.541118 c -0.0217,-2.765811 0.90849,-5.802724 2.92012,-8.796375 z m -50.18264,0.0721 c -5.23023,0.04038 -11.7785,8.988166 -12.1491,22.099091 -0.34609,12.088527 3.79398,20.420568 11.42808,20.368656 3.98866,-0.03034 7.08037,-3.323876 8.25562,-5.876267 0.0173,-0.03899 0.0231,-0.109594 0.036,-0.144203 l 0.25235,41.242023 11.17574,-7.786957 c -2.04625,-1.397464 -3.00952,-4.052389 -3.02826,-6.813586 L 293.59757,38.64637 c -0.008,-2.749949 0.88108,-5.811376 2.88406,-8.832426 l -11.17573,0.216304 c 0,1.49971 0.0246,3.104688 0.036,4.686594 -0.0246,-0.04038 -0.0533,-0.0706 -0.0721,-0.108095 -1.2142,-2.526434 -3.32245,-4.963463 -7.3183,-4.938948 z m -15.17736,0.540762 c -3.05527,0.131847 -6.30707,2.382047 -8.21957,5.804166 l -0.036,-4.830796 -11.17574,0.648912 c 2.0347,2.674964 3.00951,5.903665 3.02826,8.652172 l 0.1442,23.685322 c 0.0189,2.758601 -0.91425,5.815702 -2.9201,8.904528 l 14.13189,-0.721015 c -2.04192,-2.760043 -3.00231,-5.678709 -3.02826,-8.435868 l -0.10821,-20.693112 c 3.31378,-5.587862 7.52595,-4.282825 9.33713,0.108094 l 3.78532,-10.851208 c -1.36812,-1.670954 -3.10577,-2.35031 -4.93894,-2.271195 z m 81.69098,4.902898 c 2.00441,-0.01581 2.99365,1.985673 2.9201,4.758694 -0.0909,3.185442 -0.8407,7.649963 -8.72428,8.399817 0.50904,-7.394723 2.32023,-13.138323 5.80418,-13.158511 z m -148.493,0.54076 c -3.4041,0.07579 -7.22411,3.027453 -9.30109,7.210144 l -0.036,-5.083151 -11.24783,1.910688 c 2.04479,2.487499 3.01095,5.654195 3.02826,8.435868 l 0.1442,23.865575 c 0.0173,2.781674 -0.91136,5.98615 -2.92011,9.337136 l 14.24003,-2.235146 c -2.05921,-2.57416 -3.01528,-5.433564 -3.02826,-8.219563 l -0.1442,-20.765214 c 3.38732,-6.350694 7.72351,-5.55902 9.58949,-1.261776 l 3.85743,-11.355975 c -1.1757,-1.305936 -2.63457,-1.873069 -4.18188,-1.838587 z m -106.133371,0.468658 -11.24784,3.49692 c 2.0549,2.209188 3.00952,5.199955 3.02827,8.003259 l 0.32446,48.848724 c 0.0188,2.777059 -0.93588,6.182129 -2.95617,9.913949 l 14.27609,-4.86684 c -2.04479,-2.201848 -3.047,-4.84999 -3.06431,-7.642762 z M 280.25885,37.70905 c 2.17891,-0.02308 3.75938,1.463659 5.04711,4.037681 0.0231,0.0188 0.0548,0.06783 0.0721,0.108094 l 0.0721,13.519019 c -0.0346,0.126899 -0.0433,0.285522 -0.036,0.46866 0.0144,3.491151 -2.10969,8.226774 -5.58787,8.255614 -3.24888,0.01581 -5.52441,-5.163905 -5.29945,-13.158512 0.24226,-8.473361 2.7586,-13.220519 5.73206,-13.230613 z m -116.76834,2.811956 c -0.45322,0.02285 -0.91768,0.0916 -1.40598,0.180253 -8.01912,1.455008 -13.82618,10.14323 -13.73533,24.730793 0.0836,13.403657 7.30821,20.184365 15.10526,18.710322 6.37234,-1.202651 10.12738,-5.344019 10.09421,-10.59891 -0.0217,-3.561811 -2.10969,-5.961346 -4.9029,-5.948369 1.3036,1.988558 1.11037,9.218751 -4.54239,10.166302 -4.10258,0.693905 -6.54826,-4.082383 -6.92174,-12.149092 7.94702,1.853007 16.09738,-4.644774 16.04258,-13.663222 -0.0378,-5.01015 -2.93533,-11.770277 -9.73371,-11.428077 z m -25.99258,5.227355 c -3.49006,0.237576 -7.52378,3.666363 -9.6616,8.219563 l -0.036,-4.866847 -11.24783,2.920108 c 2.06067,2.308688 3.01529,5.391746 3.02826,8.183513 l 0.1442,24.694742 c 0.0217,2.78773 -0.89261,6.089837 -2.9201,9.661592 l 14.24004,-3.785325 c -2.0549,-2.354683 -3.01385,-5.077533 -3.02826,-7.859056 L 127.90843,61.25017 c 3.40608,-6.83089 7.78408,-6.7386 7.82302,-0.721014 l 0.10809,20.1163 c 0.0202,2.788734 0.59556,5.719086 1.83859,8.471919 l 11.13967,-2.703804 c -3.18255,-2.132622 -4.67217,-4.784513 -4.68659,-7.570651 l -0.14415,-22.13514 c -0.0497,-8.221721 -2.99906,-11.196996 -6.48913,-10.959419 z m 25.74023,1.261775 c 1.55721,0.155577 2.40152,2.021181 2.41539,4.470289 0.0173,3.230144 -0.59411,7.811469 -8.50797,9.553439 0.27543,-7.472592 1.98712,-13.298388 5.40762,-13.987678 0.25127,-0.04972 0.4625,-0.05826 0.68496,-0.036 z m -55.08553,6.741483 c -0.37313,-0.0046 -0.74043,0.01673 -1.11757,0.036 -1.0057,0.05156 -2.00984,0.219188 -2.95616,0.468659 -5.589301,1.486732 -9.624111,5.95702 -9.589501,12.365397 0.0519,8.95644 12.110161,14.573003 12.149111,21.197822 0.0173,3.237354 -1.53288,5.037006 -3.92954,5.0471 -5.145161,0.03311 -4.693801,-7.887747 -2.59565,-9.337136 -3.274861,-0.270951 -6.300231,3.207361 -6.272831,6.777535 0.0346,5.260521 4.72409,10.140334 10.743121,8.544021 5.82291,-1.550181 10.0668,-5.898187 10.0221,-12.761955 -0.0635,-10.534169 -11.85203,-15.184563 -11.89674,-22.09909 -0.0158,-2.781673 2.13709,-3.478174 3.38877,-3.496919 1.9799,-0.01038 4.06219,1.886173 5.91232,4.398187 l 2.37934,-9.805796 c -1.17913,-0.703121 -3.62489,-1.302256 -6.23677,-1.333876 z m -57.032271,3.100363 c -1.04647,16.491041 -6.72563,28.996602 -13.37482,37.13224 L 37.565279,63.73767 c 4.52264,-2.774464 9.1778,-5.11776 13.55508,-6.885688 z m 23.25273,7.678803 -11.28388,3.785325 c 2.05778,2.155833 3.05134,5.184382 3.06431,7.967209 l 0.14421,25.704161 c 0.0217,2.77865 -0.89983,6.17189 -2.92011,9.95 l 14.24003,-5.19131 c -2.06066,-2.14329 -3.04989,-4.81624 -3.06431,-7.606696 z m 324.961361,2.01884 c -1.42184,0.01442 -2.6317,0.500385 -3.64113,1.550181 -1.01374,1.038261 -1.52422,2.298594 -1.51412,3.749275 0.007,1.478079 0.53499,2.689384 1.55018,3.713224 1.0123,1.03105 2.25966,1.558544 3.67717,1.550181 1.45501,-0.01407 2.67064,-0.533262 3.67717,-1.586231 1.01663,-1.032493 1.52423,-2.28129 1.51413,-3.749275 -0.0144,-1.450682 -0.52201,-2.70092 -1.55018,-3.713225 -1.02816,-1.023839 -2.26254,-1.525665 -3.71322,-1.51413 z m 0,0.684964 c 1.26898,-0.0092 2.33608,0.46145 3.20851,1.333877 0.88541,0.883964 1.32523,1.936644 1.33388,3.208514 0.0115,1.266101 -0.42395,2.340412 -1.29782,3.244564 -0.84648,0.901268 -1.90204,1.360987 -3.17247,1.369928 -1.23005,0.0058 -2.32166,-0.41242 -3.20852,-1.297827 -0.85656,-0.892615 -1.29205,-1.974137 -1.29782,-3.244564 -0.007,-1.257449 0.43549,-2.337528 1.29782,-3.244564 0.87388,-0.891174 1.91358,-1.358391 3.13642,-1.369928 z m -2.09095,1.658334 0.036,5.804165 h 0.97337 v -2.271195 l 0.79312,-0.036 c 0.55662,0 0.93587,0.0533 1.15362,0.180253 0.36194,0.22063 0.57681,0.670544 0.57681,1.333877 v 0.468659 l 0.036,0.180254 c 0.013,0.03034 0,0.05768 0,0.0721 0.007,0.0173 0,0.02884 0,0.03599 h 0.93732 v -0.03599 c -0.0332,-0.04615 -0.0648,-0.167276 -0.0721,-0.324457 -0.0115,-0.147086 -0.0332,-0.289847 -0.036,-0.432608 v -0.432609 c 0,-0.295616 -0.0765,-0.566717 -0.28841,-0.865217 -0.20188,-0.2985 -0.56239,-0.509036 -1.00941,-0.576811 0.35617,-0.0548 0.62295,-0.154298 0.82916,-0.288406 0.36772,-0.249471 0.54653,-0.634493 0.54076,-1.153623 -0.002,-0.723898 -0.28841,-1.198326 -0.86522,-1.442029 -0.3432,-0.142761 -0.87531,-0.223514 -1.58623,-0.216304 h -2.01884 z m 0.97338,0.721013 h 0.90127 c 0.56959,0 1.00653,0.06634 1.26177,0.216305 0.26245,0.136993 0.36051,0.422514 0.36051,0.829167 0.007,0.455681 -0.18458,0.749854 -0.57681,0.901268 -0.21775,0.08653 -0.53788,0.144202 -0.97337,0.144202 h -0.93732 l -0.036,-2.090942 z m -372.295991,2.631703 0.18026,31.328071 c -2.1766,1.01116 -4.21794,1.57614 -6.02047,1.58624 -4.56157,0.0377 -7.74701,-2.95053 -7.78696,-9.048736 -0.053,-8.541136 5.70438,-16.848375 13.62717,-23.865575 z m 299.112991,9.01268 c -4.68874,-0.01349 -9.51541,0.0035 -14.4924,0.03599 -4.50779,0.02595 -8.93194,0.08214 -13.30273,0.144204 l 0.0721,10.671012 c 35.19995,1.1705 67.40913,6.664918 73.39931,9.192925 L 396.5946,83.132896 C 383.28034,82.4552 357.85498,81.352441 325.03388,81.258258 Z m -42.72013,0.54076 c -46.64389,1.407709 -86.1728,5.628377 -122.64462,13.05036 -32.02891,6.528501 -63.000831,15.582431 -97.949851,28.876621 -4.30763,1.64651 -7.59156,2.13824 -9.01268,-1.91069 -1.22415,-3.51826 1.6279,-6.93919 5.84021,-8.14746 -5.01278,-3.78142 -15.25394,2.1466 -12.40144,10.95943 2.34055,7.21288 8.88981,9.21311 16.83569,5.98442 C 130.31085,103.30838 191.58846,92.504412 281.91719,91.929331 h 0.43261 l -0.036,-10.130252 z"
     id="path54"
     style="fill:#ffffff;fill-opacity:1;fill-rule:nonzero;stroke:none;stroke-width:1.15363" />
</svg>
