<?xml version="1.0" encoding="UTF-8" standalone="no"?>
<svg
   width="531.935"
   height="123.452"
   viewBox="0 0 531.935 123.452"
   version="1.1"
   xml:space="preserve"
   style="clip-rule:evenodd;fill-rule:evenodd;stroke-linejoin:round;stroke-miterlimit:2"
   id="svg401"
   sodipodi:docname="RGB_RICAIP_WHITE_crop.svg"
   inkscape:version="1.1.2 (08b2f3d93c, 2022-04-05)"
   xmlns:inkscape="http://www.inkscape.org/namespaces/inkscape"
   xmlns:sodipodi="http://sodipodi.sourceforge.net/DTD/sodipodi-0.dtd"
   xmlns="http://www.w3.org/2000/svg"
   xmlns:svg="http://www.w3.org/2000/svg"><defs
   id="defs405" /><sodipodi:namedview
   id="namedview403"
   pagecolor="#505050"
   bordercolor="#eeeeee"
   borderopacity="1"
   inkscape:pageshadow="0"
   inkscape:pageopacity="0"
   inkscape:pagecheckerboard="0"
   showgrid="false"
   inkscape:zoom="1.2163636"
   inkscape:cx="287.33184"
   inkscape:cy="161.54709"
   inkscape:window-width="2488"
   inkscape:window-height="1376"
   inkscape:window-x="2632"
   inkscape:window-y="27"
   inkscape:window-maximized="1"
   inkscape:current-layer="svg401" />
    
    
    
    
    
    
    <g
   id="g467"
   transform="translate(-9.033,-13.274)"><g
     transform="translate(-125,-91)"
     id="g375">
        <path
   d="m 186.813,166 c 0.015,4.859 4.017,8.849 8.876,8.849 4.869,0 8.876,-4.007 8.876,-8.876 0,-4.869 -4.007,-8.876 -8.876,-8.876 -4.859,0 -8.861,3.99 -8.876,8.849 V 166 m -43.05,32.481 c -0.011,-5.169 2.046,-10.133 5.711,-13.778 l 11.821,-11.807 18.383,18.37 6.883,-6.883 -24.148,-24.147 c -4.868,-4.836 -5.24,-12.683 -0.852,-17.958 0.576,0.115 1.163,0.173 1.751,0.173 4.928,0 8.984,-4.056 8.984,-8.985 0,-4.929 -4.056,-8.985 -8.984,-8.985 -4.929,0 -8.985,4.056 -8.985,8.985 0,0.663 0.073,1.323 0.218,1.97 -7.675,8.654 -7.715,21.81 -0.093,30.51 l -11.873,11.875 c -5.437,5.483 -8.49,12.899 -8.49,20.62 0,16.019 13.144,29.218 29.163,29.285 v -9.744 c -10.691,0 -19.489,-8.797 -19.489,-19.488 z m 5.711,-78.739 c 7.558,-7.562 19.999,-7.565 27.561,-0.008 l 0.008,0.008 11.794,11.794 -18.357,18.384 6.882,6.882 24.148,-24.134 c 4.834,-4.86 12.671,-5.232 17.944,-0.852 -0.116,0.58 -0.174,1.17 -0.174,1.762 0,4.936 4.062,8.998 8.998,8.998 4.936,0 8.998,-4.062 8.998,-8.998 0,-4.936 -4.062,-8.998 -8.998,-8.998 -0.667,0 -1.332,0.074 -1.982,0.221 -8.653,-7.676 -21.81,-7.716 -30.51,-0.093 l -11.874,-11.875 c -5.481,-5.42 -12.885,-8.463 -20.594,-8.463 -16.009,0 -29.204,13.127 -29.285,29.137 h 9.744 c -0.012,-5.163 2.041,-10.121 5.697,-13.765 m 78.766,-15.468 v 9.744 c 0.025,0 0.049,0 0.074,0 10.691,0 19.489,8.797 19.489,19.488 0,5.172 -2.059,10.137 -5.719,13.791 l -11.807,11.821 -18.45,-18.383 -6.882,6.882 24.134,24.147 c 4.867,4.836 5.24,12.683 0.852,17.958 -0.577,-0.115 -1.163,-0.173 -1.751,-0.173 -4.929,0 -8.985,4.056 -8.985,8.985 0,4.929 4.056,8.985 8.985,8.985 4.929,0 8.985,-4.056 8.985,-8.985 0,-0.662 -0.074,-1.323 -0.219,-1.97 7.676,-8.654 7.716,-21.81 0.093,-30.51 l 11.874,-11.874 c 5.436,-5.483 8.49,-12.899 8.49,-20.62 0,-16.02 -13.144,-29.219 -29.163,-29.286 m 13.844,107.998 c -7.557,7.562 -19.998,7.565 -27.56,0.008 l -0.008,-0.008 -11.808,-11.807 18.304,-18.384 -6.882,-6.895 -24.108,24.107 c -4.833,4.9 -12.71,5.284 -17.997,0.879 0.113,-0.573 0.17,-1.155 0.17,-1.739 0,-4.93 -4.057,-8.987 -8.987,-8.987 -4.93,0 -8.987,4.057 -8.987,8.987 0,4.93 4.057,8.987 8.987,8.987 0.664,0 1.326,-0.074 1.975,-0.22 8.661,7.645 21.789,7.686 30.497,0.094 l 11.874,11.873 c 5.482,5.437 12.899,8.49 20.62,8.49 16.019,0 29.218,-13.143 29.285,-29.162 h -9.745 c 0.033,5.157 -1.995,10.119 -5.63,13.777"
   style="fill:#ffffff;fill-rule:nonzero"
   id="path373" />
    </g><g
     transform="translate(-125,-91)"
     id="g379">
        <path
   d="m 374.694,153.234 c 0,-14.643 -12.313,-25.066 -28.526,-25.066 H 313.82 v 76.862 h 11.302 V 178.313 H 342.8 l 18.796,26.744 h 12.979 l -19.581,-27.875 c 11.647,-3.022 19.7,-12.087 19.7,-23.948 z m -49.572,14.55 v -29.1 h 19.462 c 11.075,0 18.636,5.485 18.636,14.55 0,9.066 -7.548,14.55 -18.636,14.55 z"
   style="fill:#ffffff;fill-rule:nonzero"
   id="path377" />
    </g><g
     transform="translate(-125,-91)"
     id="g383">
        <rect
   x="387.66"
   y="128.168"
   width="11.302"
   height="76.888"
   style="fill:#ffffff"
   id="rect381" />
    </g><g
     transform="translate(-125,-91)"
     id="g387">
        <path
   d="m 452.781,137.26 c 7.787,0.132 15.176,3.512 20.367,9.318 l 7.987,-7.601 c -7.402,-7.695 -17.623,-12.061 -28.3,-12.087 -21.592,0 -39.936,18.131 -39.936,39.722 0,21.592 18.344,39.829 39.936,39.829 10.658,-0.11 20.839,-4.49 28.247,-12.154 l -7.987,-7.601 c -5.191,5.806 -12.579,9.187 -20.367,9.318 -15.282,-0.026 -28.274,-13.458 -28.274,-29.459 0,-16.001 12.992,-29.312 28.327,-29.312 z"
   style="fill:#ffffff;fill-rule:nonzero"
   id="path385" />
    </g><g
     transform="translate(-125,-91)"
     id="g391">
        <path
   d="m 532.544,128.168 -12.526,0.026 -33,76.849 h 12.527 l 6.656,-15.668 h 40.054 l 6.656,15.668 h 12.646 z m -21.924,51.05 15.668,-36.474 15.668,36.474 z"
   style="fill:#ffffff;fill-rule:nonzero"
   id="path389" />
    </g><g
     transform="translate(-125,-91)"
     id="g395">
        <rect
   x="576.966"
   y="128.168"
   width="11.302"
   height="76.902"
   style="fill:#ffffff"
   id="rect393" />
    </g><g
     transform="translate(-125,-91)"
     id="g399">
        <path
   d="M 637.441,128.168 H 605.16 v 76.862 h 11.302 v -26.717 h 20.98 c 16.227,0 28.526,-10.41 28.526,-25.066 0,-14.655 -12.247,-25.079 -28.527,-25.079 z m -1.518,39.616 -0.053,-0.014 h -19.409 v -29.086 h 19.475 c 11.076,0 18.637,5.485 18.637,14.55 0,9.066 -7.575,14.55 -18.65,14.55 z"
   style="fill:#ffffff;fill-rule:nonzero"
   id="path397" />
    </g></g>
</svg>
