<?xml version="1.0" encoding="UTF-8" standalone="no"?><!DOCTYPE svg PUBLIC "-//W3C//DTD SVG 1.1//EN" "http://www.w3.org/Graphics/SVG/1.1/DTD/svg11.dtd"><svg width="100%" height="100%" viewBox="0 0 7739 4035" version="1.1" xmlns="http://www.w3.org/2000/svg" xmlns:xlink="http://www.w3.org/1999/xlink" xml:space="preserve" xmlns:serif="http://www.serif.com/" style="fill-rule:evenodd;clip-rule:evenodd;stroke-linejoin:round;stroke-miterlimit:2;"><g id="TEXT:-We-are-serving" serif:id="TEXT: We are serving"><path d="M723.055,28.677c-3.373,-11.81 3.372,-20.247 15.182,-20.247l98.698,-0c6.758,-0 13.489,5.898 15.195,11.81l72.539,285.963l3.373,0l130.742,-296.914c2.539,-5.065 7.591,-9.284 14.349,-9.284l15.182,0c7.604,0 12.643,4.219 14.349,9.284l130.742,296.914l3.386,0l72.552,-285.963c1.666,-5.912 8.437,-11.81 15.169,-11.81l98.698,-0c11.81,-0 18.555,8.437 15.182,20.247l-159.427,566.875c-1.693,6.745 -8.437,11.81 -15.195,11.81l-13.49,-0c-5.898,-0 -11.81,-4.219 -14.336,-9.284l-154.375,-345.026l-2.539,0l-153.528,345.026c-2.526,5.065 -8.425,9.284 -14.336,9.284l-13.49,-0c-6.745,-0 -13.503,-5.065 -15.182,-11.81l-159.44,-566.875Z" style="fill:#fff;fill-rule:nonzero;"/><path d="M1534.26,24.462c0,-8.437 6.745,-16.015 16.016,-16.015l349.244,-0c9.284,-0 16.016,7.578 16.016,16.015l0,91.94c0,8.438 -6.732,16.042 -16.016,16.042l-233.671,0l-0,104.596l192.343,0c8.425,0 16.016,7.592 16.016,16.016l-0,91.966c-0,9.284 -7.591,16.029 -16.016,16.029l-192.343,-0l-0,113.867l233.671,-0c9.284,-0 16.016,7.604 16.016,16.042l0,91.94c0,8.437 -6.732,16.028 -16.016,16.028l-349.244,0c-9.271,0 -16.016,-7.591 -16.016,-16.028l0,-558.438Z" style="fill:#fff;fill-rule:nonzero;"/><path d="M2034.44,234.505c-5.911,-6.745 -4.219,-14.349 0.846,-18.554c9.284,-6.745 59.05,-43.855 59.896,-101.224c0,-0 -14.349,5.898 -33.737,5.898c-32.916,0 -60.742,-26.146 -60.742,-59.883c0,-32.916 27.826,-60.742 66.628,-60.742c32.07,0 76.771,24.453 76.771,97.852c-0,88.567 -59.05,134.961 -78.451,151.002c-5.911,4.219 -11.81,5.899 -18.555,-1.693l-12.656,-12.656Z" style="fill:#fff;fill-rule:nonzero;"/><path d="M2228.76,24.462c0,-8.437 6.745,-16.015 16.016,-16.015l252.24,-0c101.211,-0 183.893,81.823 183.893,182.2c-0,77.604 -51.458,140.026 -124.844,169.544l115.56,214.271c5.911,10.964 -0,24.466 -14.323,24.466l-112.2,0c-6.758,0 -11.81,-4.218 -13.503,-7.591l-112.201,-223.528l-58.203,-0l0,215.091c0,8.437 -7.578,16.028 -16.015,16.028l-100.404,0c-9.271,0 -16.016,-7.591 -16.016,-16.028l0,-558.438Zm257.292,236.211c34.596,0 64.115,-32.07 64.115,-67.5c-0,-35.43 -29.519,-64.114 -64.115,-64.114l-124.857,-0l0,131.614l124.857,0Z" style="fill:#fff;fill-rule:nonzero;"/><path d="M2789.04,24.462c0,-8.437 6.745,-16.015 16.029,-16.015l349.232,-0c9.284,-0 16.041,7.578 16.041,16.015l0,91.94c0,8.438 -6.757,16.042 -16.041,16.042l-233.672,0l-0,104.596l192.344,0c8.437,0 16.015,7.592 16.015,16.016l0,91.966c0,9.284 -7.578,16.029 -16.015,16.029l-192.344,-0l-0,113.867l233.672,-0c9.284,-0 16.041,7.604 16.041,16.042l0,91.94c0,8.437 -6.757,16.028 -16.041,16.028l-349.232,0c-9.284,0 -16.029,-7.591 -16.029,-16.028l0,-558.438Z" style="fill:#fff;fill-rule:nonzero;"/><path d="M3513.79,518.789l39.648,-70.026c6.745,-10.95 22.761,-9.258 28.685,-5.039c3.359,1.667 64.102,46.393 119.779,46.393c33.75,0 58.203,-21.094 58.203,-50.612c-0,-35.442 -29.531,-62.435 -86.875,-85.208c-72.552,-28.685 -163.659,-85.195 -163.659,-186.432c-0,-83.516 64.961,-167.865 194.857,-167.865c87.734,0 155.221,44.701 180.534,63.268c10.117,5.899 8.424,21.081 5.065,26.979l-43.034,64.961c-5.912,9.284 -21.081,16.875 -28.672,10.977c-7.604,-4.219 -69.18,-50.612 -120.638,-50.612c-30.365,-0 -53.151,20.234 -53.151,43.021c-0,31.198 25.312,54.83 91.966,81.81c65.781,26.159 170.391,77.617 170.391,192.343c-0,86.888 -75.092,174.61 -199.076,174.61c-109.674,-0 -170.417,-45.547 -189.805,-64.935c-8.437,-8.451 -10.963,-11.823 -4.218,-23.633" style="fill:#fff;fill-rule:nonzero;"/><path d="M4000.82,24.462c0,-8.437 6.745,-16.015 16.016,-16.015l349.245,-0c9.283,-0 16.041,7.578 16.041,16.015l0,91.94c0,8.438 -6.758,16.042 -16.041,16.042l-233.672,0l-0,104.596l192.343,0c8.425,0 16.016,7.592 16.016,16.016l0,91.966c0,9.284 -7.591,16.029 -16.016,16.029l-192.343,-0l-0,113.867l233.672,-0c9.283,-0 16.041,7.604 16.041,16.042l0,91.94c0,8.437 -6.758,16.028 -16.041,16.028l-349.245,0c-9.271,0 -16.016,-7.591 -16.016,-16.028l0,-558.438Z" style="fill:#fff;fill-rule:nonzero;"/><path d="M4512.11,24.462c-0,-8.437 6.744,-16.015 16.015,-16.015l252.24,-0c101.211,-0 183.893,81.823 183.893,182.2c0,77.604 -51.458,140.026 -124.844,169.544l115.56,214.271c5.912,10.964 0,24.466 -14.323,24.466l-112.2,0c-6.771,0 -11.81,-4.218 -13.503,-7.591l-112.2,-223.528l-58.203,-0l-0,215.091c-0,8.437 -7.579,16.028 -16.029,16.028l-100.391,0c-9.271,0 -16.015,-7.591 -16.015,-16.028l-0,-558.438Zm257.291,236.211c34.584,0 64.115,-32.07 64.115,-67.5c-0,-35.43 -29.531,-64.114 -64.115,-64.114l-124.856,-0l-0,131.614l124.856,0Z" style="fill:#fff;fill-rule:nonzero;"/><path d="M4999.64,30.362c-5.065,-10.951 1.693,-21.94 14.349,-21.94l112.187,-0c6.745,-0 12.644,5.078 14.336,9.284l139.193,307.916l5.052,0l139.206,-307.916c1.68,-4.206 7.591,-9.284 14.323,-9.284l112.213,-0c12.644,-0 19.388,10.989 14.336,21.94l-264.883,567.721c-2.539,5.065 -7.604,9.284 -14.349,9.284l-8.437,0c-6.745,0 -11.797,-4.219 -14.336,-9.284l-263.19,-567.721Z" style="fill:#fff;fill-rule:nonzero;"/><path d="M5654.98,24.462c-0,-8.437 7.591,-16.015 16.015,-16.015l101.25,-0c8.425,-0 16.016,7.578 16.016,16.015l0,558.438c0,8.437 -7.591,16.028 -16.016,16.028l-101.25,0c-8.424,0 -16.015,-7.591 -16.015,-16.028l-0,-558.438Z" style="fill:#fff;fill-rule:nonzero;"/><path d="M5905.8,17.24c0,-8.438 7.591,-15.183 16.016,-15.183l21.107,0l336.575,323.933l0.846,-0l0,-299.467c0,-8.437 6.758,-16.028 16.016,-16.028l101.25,-0c8.438,-0 16.016,7.591 16.016,16.028l-0,567.722c-0,8.437 -7.578,15.169 -16.016,15.169l-13.516,0c-2.513,0 -9.27,-2.513 -10.963,-4.219l-333.19,-334.882l-0.86,-0l0,314.648c0,8.437 -6.744,16.029 -16.015,16.029l-100.391,-0c-8.437,-0 -16.028,-7.592 -16.028,-16.029l-0.847,-567.721Z" style="fill:#fff;fill-rule:nonzero;"/><path d="M6800.62,0.842c70.846,0 148.451,29.519 205.833,79.284c7.591,5.912 8.425,16.042 1.68,22.787l-66.641,70.846c-6.744,5.912 -16.028,5.912 -22.786,0.846c-32.044,-29.518 -69.154,-40.481 -110.508,-40.481c-91.94,-0 -166.185,77.617 -166.185,170.403c0,91.94 75.091,167.852 167.031,167.852c24.454,-0 49.779,-3.359 75.079,-13.477l-0,-48.932l-53.138,0c-9.284,0 -16.016,-6.745 -16.016,-15.182l-0,-83.516c-0,-9.284 6.732,-16.029 16.016,-16.029l169.557,0c8.424,0 15.195,7.592 15.195,16.029l0.82,226.927c0.001,4.206 -3.372,10.951 -6.744,13.49c-0,-0 -86.875,54.831 -209.193,54.831c-167.891,-0 -302.852,-133.282 -302.852,-301.993c0,-168.724 134.961,-303.685 302.852,-303.685" style="fill:#fff;fill-rule:nonzero;"/></g><path id="Curves:-Costa-coffee" serif:id="Curves: Costa coffee" d="M2864.24,3384.58c179.375,-0 324.857,145.468 324.857,324.87c-0,179.414 -145.482,324.869 -324.857,324.869c-179.388,0 -324.857,-145.455 -324.857,-324.869c0,-179.402 145.469,-324.87 324.857,-324.87m0.677,511.289c103.281,-0 187.044,-83.763 187.044,-187.071c0,-103.333 -83.763,-187.044 -187.044,-187.044c-103.32,0 -187.057,83.711 -187.057,187.044c-0,103.308 83.737,187.071 187.057,187.071m3062.1,-375.573l0,-125.846l-470.755,-0l0,629.101l483.633,0l-0,-126.419l-336.823,-0l-0,-126.758l275.547,-0l-0,-125.794l-275.547,-0l-0,-124.284l323.945,-0Zm-1026.63,376.836l-0,-126.745l275.612,0l-0,-125.859l-275.612,-0l-0,-124.271l323.958,-0l-0,-125.768l-470.742,-0l-0,629.062l483.646,0l-0,-126.419l-336.862,-0Zm-2603.99,-86.393c-33.346,52.252 -91.836,86.901 -158.437,86.901c-103.672,-0 -187.696,-84.05 -187.696,-187.696c0,-103.698 84.024,-187.734 187.696,-187.734c58.047,-0 109.87,26.302 144.323,67.63l97.252,-97.07c-59.44,-66.12 -145.638,-107.682 -241.523,-107.682c-179.427,-0 -324.883,145.429 -324.883,324.856c0,179.427 145.456,324.87 324.883,324.87c103.841,0 196.302,-50.612 255.742,-126.419l-97.357,-97.656Zm1776.26,212.812l146.797,0l0,-253.203l275.56,-0l0,-125.768l-275.56,-0l0,-124.297l332.188,-0l-0,-125.794l-478.985,-0l0,629.062Zm-679.57,0l146.784,0l-0,-253.203l275.573,-0l-0,-125.768l-275.573,-0l-0,-124.297l332.2,-0l0,-125.794l-478.984,-0l-0,629.062Zm4345.65,-1327.92l-481.836,0l-63.984,-271.145l-475.339,-0l-64.362,271.145l-480.898,0l498.672,-1574.62l569.075,0l498.672,1574.62Zm-628.216,-617.031l-143.099,-603.437l-24.857,-0l-143.112,603.437l311.068,0Zm-4655.59,-987.89c454.375,-0 821.836,367.161 821.836,820.768c-0,454.062 -367.461,821.575 -821.836,821.575c-453.906,0 -821.38,-367.513 -821.38,-821.575c-0,-453.607 367.474,-820.768 821.38,-820.768m-14.141,1191.22c205.183,0 371.224,-166.302 371.224,-370.664c0,-204.609 -166.041,-370.664 -371.224,-370.664c-204.557,0 -371.289,166.055 -371.289,370.664c0,204.362 166.732,370.664 371.289,370.664m-2440.81,-370.976c0,453.581 367.461,820.768 821.367,820.768c226.068,0 430.547,-90.859 579.037,-238.021l-318.685,-318.255c-66.979,65.781 -158.867,106.393 -260.352,106.393c-204.57,0 -371.276,-166.054 -371.276,-370.664c0,-204.622 166.706,-370.664 371.276,-370.664c101.485,0 193.373,40.599 260.352,106.367l318.685,-318.281c-148.49,-147.122 -352.969,-237.969 -579.037,-237.969c-453.906,0 -821.367,366.732 -821.367,820.326m5647.01,784.7l0,-1172.81l359.037,-0l-0,-401.81l-1182.5,0l-0,401.81l355.599,-0l-0,1172.81l467.864,0Zm-1715.95,-1574.53l583.359,-0.117c-199.583,93.125 -336.471,286.159 -317.331,503.398c27.956,317.852 317.331,440.886 317.331,815.691c0,249.7 -161.875,468.893 -340.573,563.645l-530.859,-146.458c183.489,-85.586 305.039,-263.477 297.109,-457.461c-12.344,-301.758 -297.109,-439.922 -297.109,-781.575c-0,-231.615 128.672,-417.071 288.073,-497.123" style="fill:#fff;fill-rule:nonzero;"/></svg>